<svg xmlns="http://www.w3.org/2000/svg" width="3300" height="2370" viewBox="0 0 3300 2370" role="img" aria-labelledby="title description">
<title id="title">Z Route complete Base leveling route, levels 1 through 30</title>
<desc id="description">A three-column guide listing Base construction time, combined Base and prerequisite resources, and per-building prerequisite workloads for multi-slot scheduling at every Base level.</desc>
<style>
  .title { font: 800 54px Inter,Segoe UI,sans-serif; fill: #f5f7ff }
  .subtitle { font: 400 24px Inter,Segoe UI,sans-serif; fill: #9aa9c3 }
  .card-label { font: 700 17px Inter,Segoe UI,sans-serif; fill: #8ea0bd; letter-spacing: 2px }
  .card-value { font: 800 30px Inter,Segoe UI,sans-serif; fill: #f5f7ff }
  .card-note { font: 400 18px Inter,Segoe UI,sans-serif; fill: #aab7cc }
  .band { font: 800 27px Inter,Segoe UI,sans-serif; fill: #f5f7ff }
  .column { font: 700 14px Inter,Segoe UI,sans-serif; fill: #7789a7; letter-spacing: 1.3px }
  .level { font: 800 24px Inter,Segoe UI,sans-serif; fill: #f5f7ff }
  .time { font: 700 18px Inter,Segoe UI,sans-serif; fill: #dce5f5 }
  .resource { font: 600 15px Inter,Segoe UI,sans-serif; fill: #aebbd0 }
  .body { font: 500 16px Inter,Segoe UI,sans-serif; fill: #d6deec }
  .none { font: italic 500 16px Inter,Segoe UI,sans-serif; fill: #7183a1 }
  .total-label { font: 700 15px Inter,Segoe UI,sans-serif; fill: #8798b5; letter-spacing: 1.2px }
  .total { font: 700 18px Inter,Segoe UI,sans-serif; fill: #dce5f5 }
  .footer { font: 400 17px Inter,Segoe UI,sans-serif; fill: #8798b5 }
</style>
<rect width="3300" height="2370" fill="#08111f"/>
<circle cx="3050" cy="-70" r="510" fill="#162a47" opacity=".45"/>
<circle cx="80" cy="2370" r="390" fill="#10243d" opacity=".5"/>
<text x="45" y="75" class="title">Z ROUTE  /  COMPLETE BASE LEVELING GUIDE</text>
<text x="47" y="117" class="subtitle">Base time, combined resource requirements, and independently schedulable prerequisite building work</text>
<rect x="45" y="150" width="1040" height="142" rx="18" fill="#101d31" stroke="#213553"/>
<text x="73" y="185" class="card-label">DIRECT BASE TIME</text>
<text x="73" y="232" class="card-value">395d 10h 43m 48s</text>
<text x="73" y="266" class="card-note">Base levels 1–30 · before speed modifiers</text>
<rect x="1130" y="150" width="1040" height="142" rx="18" fill="#101d31" stroke="#213553"/>
<text x="1158" y="185" class="card-label">FULL ROUTE CORE RESOURCES</text>
<text x="1158" y="232" class="card-value">13.352B Food  ·  12.992B Metal</text>
<text x="1158" y="266" class="card-note">4.501B Oil, including prerequisites</text>
<rect x="2215" y="150" width="1040" height="142" rx="18" fill="#101d31" stroke="#213553"/>
<text x="2243" y="185" class="card-label">PARALLEL PREREQUISITES</text>
<text x="2243" y="232" class="card-value">Per-building times shown</text>
<text x="2243" y="266" class="card-note">Elapsed time depends on construction slots and scheduling</text>
<rect x="45" y="350" width="1040" height="1820" rx="20" fill="#0d192b" stroke="#213553"/>
<rect x="45" y="350" width="1040" height="6" rx="3" fill="#5ee6a8"/>
<text x="70" y="394" class="band">BASE LEVELS 1–10</text>
<text x="70" y="430" class="column">LV</text>
<text x="150" y="430" class="column">BASE TIME</text>
<text x="375" y="430" class="column">TOTAL RESOURCES</text>
<text x="690" y="430" class="column">BUILDING WORK REQUIRED</text>
<g id="level-1"><rect x="57" y="448" width="1016" height="146" rx="12" fill="#111f34"/>
<rect x="57" y="448" width="5" height="146" rx="2" fill="#5ee6a8" opacity=".8"/>
<text x="80" y="490" class="level">01</text>
<text x="150" y="477" class="time">2s</text>
<rect x="150" y="488" width="220" height="5" rx="2" fill="#263a57"/>
<rect x="150" y="488" width="26.2" height="5" rx="2" fill="#5ee6a8"/>
<text x="375" y="477" class="body">Base + requirements</text>
<text x="375" y="510" class="resource">F 90</text>
<text x="375" y="534" class="resource">M 90</text>
<text x="375" y="558" class="resource">O 0</text>
<text x="690" y="479" class="none">None</text>
</g>
<g id="level-2"><rect x="57" y="604" width="1016" height="146" rx="12" fill="#0f1c2f"/>
<rect x="57" y="604" width="5" height="146" rx="2" fill="#5ee6a8" opacity=".8"/>
<text x="80" y="646" class="level">02</text>
<text x="150" y="633" class="time">2s</text>
<rect x="150" y="644" width="220" height="5" rx="2" fill="#263a57"/>
<rect x="150" y="644" width="26.2" height="5" rx="2" fill="#5ee6a8"/>
<text x="375" y="633" class="body">Base + requirements</text>
<text x="375" y="666" class="resource">F 270</text>
<text x="375" y="690" class="resource">M 220</text>
<text x="375" y="714" class="resource">O 0</text>
<text x="690" y="635" class="body">Drill Ground 0→1 · 1s</text>
<text x="690" y="658" class="body">Squad 1 0→1 · 6s</text>
<text x="690" y="681" class="body">Defense Line 0→1 · 2s</text>
</g>
<g id="level-3"><rect x="57" y="760" width="1016" height="146" rx="12" fill="#111f34"/>
<rect x="57" y="760" width="5" height="146" rx="2" fill="#5ee6a8" opacity=".8"/>
<text x="80" y="802" class="level">03</text>
<text x="150" y="789" class="time">47s</text>
<rect x="150" y="800" width="220" height="5" rx="2" fill="#263a57"/>
<rect x="150" y="800" width="62.1" height="5" rx="2" fill="#5ee6a8"/>
<text x="375" y="789" class="body">Base + requirements</text>
<text x="375" y="822" class="resource">F 580</text>
<text x="375" y="846" class="resource">M 510</text>
<text x="375" y="870" class="resource">O 0</text>
<text x="690" y="791" class="body">Defense Line 1→2 · 4s</text>
</g>
<g id="level-4"><rect x="57" y="916" width="1016" height="146" rx="12" fill="#0f1c2f"/>
<rect x="57" y="916" width="5" height="146" rx="2" fill="#5ee6a8" opacity=".8"/>
<text x="80" y="958" class="level">04</text>
<text x="150" y="945" class="time">1m 57s</text>
<rect x="150" y="956" width="220" height="5" rx="2" fill="#263a57"/>
<rect x="150" y="956" width="73.8" height="5" rx="2" fill="#5ee6a8"/>
<text x="375" y="945" class="body">Base + requirements</text>
<text x="375" y="978" class="resource">F 4,180</text>
<text x="375" y="1002" class="resource">M 4,850</text>
<text x="375" y="1026" class="resource">O 0</text>
<text x="690" y="947" class="body">Engineering 0→1 · 4s</text>
<text x="690" y="970" class="body">Soldier Camp 0→3 · 52s</text>
<text x="690" y="993" class="body">Drill Ground 1→3 · 50s</text>
</g>
<g id="level-5"><rect x="57" y="1072" width="1016" height="146" rx="12" fill="#111f34"/>
<rect x="57" y="1072" width="5" height="146" rx="2" fill="#5ee6a8" opacity=".8"/>
<text x="80" y="1114" class="level">05</text>
<text x="150" y="1101" class="time">11m 42s</text>
<rect x="150" y="1112" width="220" height="5" rx="2" fill="#263a57"/>
<rect x="150" y="1112" width="96.9" height="5" rx="2" fill="#5ee6a8"/>
<text x="375" y="1101" class="body">Base + requirements</text>
<text x="375" y="1134" class="resource">F 30,530</text>
<text x="375" y="1158" class="resource">M 27,840</text>
<text x="375" y="1182" class="resource">O 0</text>
<text x="690" y="1103" class="body">Defense Line 2→4 · 2m 44s</text>
<text x="690" y="1126" class="body">Soldier Camp 3→4 · 1m 57s</text>
</g>
<g id="level-6"><rect x="57" y="1228" width="1016" height="146" rx="12" fill="#0f1c2f"/>
<rect x="57" y="1228" width="5" height="146" rx="2" fill="#5ee6a8" opacity=".8"/>
<text x="80" y="1270" class="level">06</text>
<text x="150" y="1257" class="time">35m 6s</text>
<rect x="150" y="1268" width="220" height="5" rx="2" fill="#263a57"/>
<rect x="150" y="1268" width="111.1" height="5" rx="2" fill="#5ee6a8"/>
<text x="375" y="1257" class="body">Base + requirements</text>
<text x="375" y="1290" class="resource">F 116,790</text>
<text x="375" y="1314" class="resource">M 116,370</text>
<text x="375" y="1338" class="resource">O 0</text>
<text x="690" y="1259" class="body">Defense Line 4→5 · 11m 42s</text>
<text x="690" y="1282" class="body">Drill Ground 3→5 · 13m 39s</text>
</g>
<g id="level-7"><rect x="57" y="1384" width="1016" height="146" rx="12" fill="#111f34"/>
<rect x="57" y="1384" width="5" height="146" rx="2" fill="#5ee6a8" opacity=".8"/>
<text x="80" y="1426" class="level">07</text>
<text x="150" y="1413" class="time">1h 33m 36s</text>
<rect x="150" y="1424" width="220" height="5" rx="2" fill="#263a57"/>
<rect x="150" y="1424" width="123.8" height="5" rx="2" fill="#5ee6a8"/>
<text x="375" y="1413" class="body">Base + requirements</text>
<text x="375" y="1446" class="resource">F 463,630</text>
<text x="375" y="1470" class="resource">M 320,590</text>
<text x="375" y="1494" class="resource">O 0</text>
<text x="690" y="1415" class="body">Warrior Center 0→6 · 55m 41s</text>
<text x="690" y="1438" class="body">Defense Line 5→6 · 35m 6s</text>
</g>
<g id="level-8"><rect x="57" y="1540" width="1016" height="146" rx="12" fill="#0f1c2f"/>
<rect x="57" y="1540" width="5" height="146" rx="2" fill="#5ee6a8" opacity=".8"/>
<text x="80" y="1582" class="level">08</text>
<text x="150" y="1569" class="time">3h 7m 12s</text>
<rect x="150" y="1580" width="220" height="5" rx="2" fill="#263a57"/>
<rect x="150" y="1580" width="132.8" height="5" rx="2" fill="#5ee6a8"/>
<text x="375" y="1569" class="body">Base + requirements</text>
<text x="375" y="1602" class="resource">F 790,380</text>
<text x="375" y="1626" class="resource">M 923,500</text>
<text x="375" y="1650" class="resource">O 0</text>
<text x="690" y="1571" class="body">Alpha Research 0→7 · 2h 11m</text>
<text x="690" y="1594" class="body">Radar 0→1 · 1s</text>
<text x="690" y="1617" class="body">Alliance Center 0→7 · 1h 24m</text>
</g>
<g id="level-9"><rect x="57" y="1696" width="1016" height="146" rx="12" fill="#111f34"/>
<rect x="57" y="1696" width="5" height="146" rx="2" fill="#5ee6a8" opacity=".8"/>
<text x="80" y="1738" class="level">09</text>
<text x="150" y="1725" class="time">4h 22m 5s</text>
<rect x="150" y="1736" width="220" height="5" rx="2" fill="#263a57"/>
<rect x="150" y="1736" width="137.1" height="5" rx="2" fill="#5ee6a8"/>
<text x="375" y="1725" class="body">Base + requirements</text>
<text x="375" y="1758" class="resource">F 1,402,800</text>
<text x="375" y="1782" class="resource">M 1,092,780</text>
<text x="375" y="1806" class="resource">O 199,500</text>
<text x="690" y="1727" class="body">Alpha Research 7→8 · 2h 43m</text>
<text x="690" y="1750" class="body">Warrior Center 6→8 · 3h 30m</text>
</g>
<g id="level-10"><rect x="57" y="1852" width="1016" height="146" rx="12" fill="#0f1c2f"/>
<rect x="57" y="1852" width="5" height="146" rx="2" fill="#5ee6a8" opacity=".8"/>
<text x="80" y="1894" class="level">10</text>
<text x="150" y="1881" class="time">5h 40m 43s</text>
<rect x="150" y="1892" width="220" height="5" rx="2" fill="#263a57"/>
<rect x="150" y="1892" width="140.5" height="5" rx="2" fill="#5ee6a8"/>
<text x="375" y="1881" class="body">Base + requirements</text>
<text x="375" y="1914" class="resource">F 1,635,990</text>
<text x="375" y="1938" class="resource">M 2,330,940</text>
<text x="375" y="1962" class="resource">O 526,720</text>
<text x="690" y="1883" class="body">Alpha Research 8→9 · 3h 49m</text>
<text x="690" y="1906" class="body">Hospital 0→9 · 7h 36m</text>
</g>
<text x="70" y="2038" class="total-label">BAND TOTAL · BASE TIME + ALL RESOURCES</text>
<text x="70" y="2072" class="total">15h 33m 12s</text>
<text x="425" y="2043" class="total">F 4.445M  ·  M 4.818M</text>
<text x="425" y="2076" class="total">O 726.22K</text>
<rect x="1120" y="350" width="1040" height="1820" rx="20" fill="#0d192b" stroke="#213553"/>
<rect x="1120" y="350" width="1040" height="6" rx="3" fill="#ffc857"/>
<text x="1145" y="394" class="band">BASE LEVELS 11–20</text>
<text x="1145" y="430" class="column">LV</text>
<text x="1225" y="430" class="column">BASE TIME</text>
<text x="1450" y="430" class="column">TOTAL RESOURCES</text>
<text x="1765" y="430" class="column">BUILDING WORK REQUIRED</text>
<g id="level-11"><rect x="1132" y="448" width="1016" height="146" rx="12" fill="#111f34"/>
<rect x="1132" y="448" width="5" height="146" rx="2" fill="#ffc857" opacity=".8"/>
<text x="1155" y="490" class="level">11</text>
<text x="1225" y="477" class="time">7h 22m 55s</text>
<rect x="1225" y="488" width="220" height="5" rx="2" fill="#263a57"/>
<rect x="1225" y="488" width="143.9" height="5" rx="2" fill="#ffc857"/>
<text x="1450" y="477" class="body">Base + requirements</text>
<text x="1450" y="510" class="resource">F 4,521,150</text>
<text x="1450" y="534" class="resource">M 3,198,080</text>
<text x="1450" y="558" class="resource">O 1,092,160</text>
<text x="1765" y="479" class="body">Alpha Research 9→10 · 4h 58m</text>
<text x="1765" y="502" class="body">Defense Line 6→10 · 14h 43m</text>
</g>
<g id="level-12"><rect x="1132" y="604" width="1016" height="146" rx="12" fill="#0f1c2f"/>
<rect x="1132" y="604" width="5" height="146" rx="2" fill="#ffc857" opacity=".8"/>
<text x="1155" y="646" class="level">12</text>
<text x="1225" y="633" class="time">9h 35m 48s</text>
<rect x="1225" y="644" width="220" height="5" rx="2" fill="#263a57"/>
<rect x="1225" y="644" width="147.3" height="5" rx="2" fill="#ffc857"/>
<text x="1450" y="633" class="body">Base + requirements</text>
<text x="1450" y="666" class="resource">F 6,774,200</text>
<text x="1450" y="690" class="resource">M 6,774,200</text>
<text x="1450" y="714" class="resource">O 2,145,800</text>
<text x="1765" y="635" class="body">Alpha Research 10→11 · 6h 27m</text>
<text x="1765" y="658" class="body">Soldier Camp 4→11 · 17h 21m</text>
</g>
<g id="level-13"><rect x="1132" y="760" width="1016" height="146" rx="12" fill="#111f34"/>
<rect x="1132" y="760" width="5" height="146" rx="2" fill="#ffc857" opacity=".8"/>
<text x="1155" y="802" class="level">13</text>
<text x="1225" y="789" class="time">12h 28m 32s</text>
<rect x="1225" y="800" width="220" height="5" rx="2" fill="#263a57"/>
<rect x="1225" y="800" width="150.7" height="5" rx="2" fill="#ffc857"/>
<text x="1450" y="789" class="body">Base + requirements</text>
<text x="1450" y="822" class="resource">F 11,068,460</text>
<text x="1450" y="846" class="resource">M 7,859,090</text>
<text x="1450" y="870" class="resource">O 3,002,160</text>
<text x="1765" y="791" class="body">Alpha Research 11→12 · 8h 23m</text>
<text x="1765" y="814" class="body">Warrior Center 8→12 · 20h 16m</text>
</g>
<g id="level-14"><rect x="1132" y="916" width="1016" height="146" rx="12" fill="#0f1c2f"/>
<rect x="1132" y="916" width="5" height="146" rx="2" fill="#ffc857" opacity=".8"/>
<text x="1155" y="958" class="level">14</text>
<text x="1225" y="945" class="time">16h 13m 6s</text>
<rect x="1225" y="956" width="220" height="5" rx="2" fill="#263a57"/>
<rect x="1225" y="956" width="154.1" height="5" rx="2" fill="#ffc857"/>
<text x="1450" y="945" class="body">Base + requirements</text>
<text x="1450" y="978" class="resource">F 9,715,700</text>
<text x="1450" y="1002" class="resource">M 13,216,710</text>
<text x="1450" y="1026" class="resource">O 3,883,680</text>
<text x="1765" y="947" class="body">Alpha Research 12→13 · 10h 54m</text>
<text x="1765" y="970" class="body">Drill Ground 5→13 · 22h 28m</text>
</g>
<g id="level-15"><rect x="1132" y="1072" width="1016" height="146" rx="12" fill="#111f34"/>
<rect x="1132" y="1072" width="5" height="146" rx="2" fill="#ffc857" opacity=".8"/>
<text x="1155" y="1114" class="level">15</text>
<text x="1225" y="1101" class="time">22h 42m 20s</text>
<rect x="1225" y="1112" width="220" height="5" rx="2" fill="#263a57"/>
<rect x="1225" y="1112" width="158.5" height="5" rx="2" fill="#ffc857"/>
<text x="1450" y="1101" class="body">Base + requirements</text>
<text x="1450" y="1134" class="resource">F 24,511,850</text>
<text x="1450" y="1158" class="resource">M 15,578,870</text>
<text x="1450" y="1182" class="resource">O 6,399,430</text>
<text x="1765" y="1103" class="body">Alpha Research 13→14 · 14h 11m</text>
<text x="1765" y="1126" class="body">Defense Line 10→14 · 1d 21h</text>
</g>
<g id="level-16"><rect x="1132" y="1228" width="1016" height="146" rx="12" fill="#0f1c2f"/>
<rect x="1132" y="1228" width="5" height="146" rx="2" fill="#ffc857" opacity=".8"/>
<text x="1155" y="1270" class="level">16</text>
<text x="1225" y="1257" class="time">1d 7h 47m 15s</text>
<rect x="1225" y="1268" width="220" height="5" rx="2" fill="#263a57"/>
<rect x="1225" y="1268" width="162.8" height="5" rx="2" fill="#ffc857"/>
<text x="1450" y="1257" class="body">Base + requirements</text>
<text x="1450" y="1290" class="resource">F 21,459,180</text>
<text x="1450" y="1314" class="resource">M 28,713,840</text>
<text x="1450" y="1338" class="resource">O 9,209,990</text>
<text x="1765" y="1259" class="body">Alpha Research 14→15 · 19h 52m</text>
<text x="1765" y="1282" class="body">Alliance Center 7→15 · 1d 16h</text>
</g>
<g id="level-17"><rect x="1132" y="1384" width="1016" height="146" rx="12" fill="#111f34"/>
<rect x="1132" y="1384" width="5" height="146" rx="2" fill="#ffc857" opacity=".8"/>
<text x="1155" y="1426" class="level">17</text>
<text x="1225" y="1413" class="time">1d 20h 30m 9s</text>
<rect x="1225" y="1424" width="220" height="5" rx="2" fill="#263a57"/>
<rect x="1225" y="1424" width="167.2" height="5" rx="2" fill="#ffc857"/>
<text x="1450" y="1413" class="body">Base + requirements</text>
<text x="1450" y="1446" class="resource">F 47,272,430</text>
<text x="1450" y="1470" class="resource">M 33,624,820</text>
<text x="1450" y="1494" class="resource">O 12,780,960</text>
<text x="1765" y="1415" class="body">Alpha Research 15→16 · 1d 3h</text>
<text x="1765" y="1438" class="body">Warrior Center 12→16 · 2d 14h</text>
</g>
<g id="level-18"><rect x="1132" y="1540" width="1016" height="146" rx="12" fill="#0f1c2f"/>
<rect x="1132" y="1540" width="5" height="146" rx="2" fill="#ffc857" opacity=".8"/>
<text x="1155" y="1582" class="level">18</text>
<text x="1225" y="1569" class="time">2d 14h 18m 13s</text>
<rect x="1225" y="1580" width="220" height="5" rx="2" fill="#263a57"/>
<rect x="1225" y="1580" width="171.5" height="5" rx="2" fill="#ffc857"/>
<text x="1450" y="1569" class="body">Base + requirements</text>
<text x="1450" y="1602" class="resource">F 53,795,170</text>
<text x="1450" y="1626" class="resource">M 78,258,930</text>
<text x="1450" y="1650" class="resource">O 22,952,800</text>
<text x="1765" y="1571" class="body">Alpha Research 16→17 · 1d 14h</text>
<text x="1765" y="1594" class="body">Hospital 9→17 · 4d 16h</text>
</g>
<g id="level-19"><rect x="1132" y="1696" width="1016" height="146" rx="12" fill="#111f34"/>
<rect x="1132" y="1696" width="5" height="146" rx="2" fill="#ffc857" opacity=".8"/>
<text x="1155" y="1738" class="level">19</text>
<text x="1225" y="1725" class="time">3d 15h 13m 29s</text>
<rect x="1225" y="1736" width="220" height="5" rx="2" fill="#263a57"/>
<rect x="1225" y="1736" width="175.9" height="5" rx="2" fill="#ffc857"/>
<text x="1450" y="1725" class="body">Base + requirements</text>
<text x="1450" y="1758" class="resource">F 119,178,040</text>
<text x="1450" y="1782" class="resource">M 77,372,650</text>
<text x="1450" y="1806" class="resource">O 32,011,560</text>
<text x="1765" y="1727" class="body">Alpha Research 17→18 · 2d 6h</text>
<text x="1765" y="1750" class="body">Defense Line 14→18 · 6d 17h</text>
</g>
<g id="level-20"><rect x="1132" y="1852" width="1016" height="146" rx="12" fill="#0f1c2f"/>
<rect x="1132" y="1852" width="5" height="146" rx="2" fill="#ffc857" opacity=".8"/>
<text x="1155" y="1894" class="level">20</text>
<text x="1225" y="1881" class="time">5d 2h 6m 53s</text>
<rect x="1225" y="1892" width="220" height="5" rx="2" fill="#263a57"/>
<rect x="1225" y="1892" width="180.2" height="5" rx="2" fill="#ffc857"/>
<text x="1450" y="1881" class="body">Base + requirements</text>
<text x="1450" y="1914" class="resource">F 142,217,220</text>
<text x="1450" y="1938" class="resource">M 142,217,220</text>
<text x="1450" y="1962" class="resource">O 49,406,090</text>
<text x="1765" y="1883" class="body">Alpha Research 18→19 · 3d 4h</text>
<text x="1765" y="1906" class="body">Soldier Camp 11→19 · 8d 23h</text>
</g>
<text x="1145" y="2038" class="total-label">BAND TOTAL · BASE TIME + ALL RESOURCES</text>
<text x="1145" y="2072" class="total">17d 8h 18m 40s</text>
<text x="1500" y="2043" class="total">F 440.513M  ·  M 406.814M</text>
<text x="1500" y="2076" class="total">O 142.885M</text>
<rect x="2195" y="350" width="1040" height="1820" rx="20" fill="#0d192b" stroke="#213553"/>
<rect x="2195" y="350" width="1040" height="6" rx="3" fill="#ff6b6b"/>
<text x="2220" y="394" class="band">BASE LEVELS 21–30</text>
<text x="2220" y="430" class="column">LV</text>
<text x="2300" y="430" class="column">BASE TIME</text>
<text x="2525" y="430" class="column">TOTAL RESOURCES</text>
<text x="2840" y="430" class="column">BUILDING WORK REQUIRED</text>
<g id="level-21"><rect x="2207" y="448" width="1016" height="146" rx="12" fill="#111f34"/>
<rect x="2207" y="448" width="5" height="146" rx="2" fill="#ff6b6b" opacity=".8"/>
<text x="2230" y="490" class="level">21</text>
<text x="2300" y="477" class="time">6d 14h 44m 57s</text>
<rect x="2300" y="488" width="220" height="5" rx="2" fill="#263a57"/>
<rect x="2300" y="488" width="183.6" height="5" rx="2" fill="#ff6b6b"/>
<text x="2525" y="477" class="body">Base + requirements</text>
<text x="2525" y="510" class="resource">F 238,021,400</text>
<text x="2525" y="534" class="resource">M 169,699,400</text>
<text x="2525" y="558" class="resource">O 65,563,730</text>
<text x="2840" y="479" class="body">Alpha Research 19→20 · 4d 10h</text>
<text x="2840" y="502" class="body">Warrior Center 16→20 · 9d 21h</text>
</g>
<g id="level-22"><rect x="2207" y="604" width="1016" height="146" rx="12" fill="#0f1c2f"/>
<rect x="2207" y="604" width="5" height="146" rx="2" fill="#ff6b6b" opacity=".8"/>
<text x="2230" y="646" class="level">22</text>
<text x="2300" y="633" class="time">8d 14h 22m 26s</text>
<rect x="2300" y="644" width="220" height="5" rx="2" fill="#263a57"/>
<rect x="2300" y="644" width="187.0" height="5" rx="2" fill="#ff6b6b"/>
<text x="2525" y="633" class="body">Base + requirements</text>
<text x="2525" y="666" class="resource">F 222,412,250</text>
<text x="2525" y="690" class="resource">M 304,105,720</text>
<text x="2525" y="714" class="resource">O 89,862,190</text>
<text x="2840" y="635" class="body">Alpha Research 20→21 · 5d 18h</text>
<text x="2840" y="658" class="body">Drill Ground 13→21 · 11d 8h</text>
</g>
<g id="level-23"><rect x="2207" y="760" width="1016" height="146" rx="12" fill="#111f34"/>
<rect x="2207" y="760" width="5" height="146" rx="2" fill="#ff6b6b" opacity=".8"/>
<text x="2230" y="802" class="level">23</text>
<text x="2300" y="789" class="time">11d 4h 17m 9s</text>
<rect x="2300" y="800" width="220" height="5" rx="2" fill="#263a57"/>
<rect x="2300" y="800" width="190.4" height="5" rx="2" fill="#ff6b6b"/>
<text x="2525" y="789" class="body">Base + requirements</text>
<text x="2525" y="822" class="resource">F 519,645,700</text>
<text x="2525" y="846" class="resource">M 328,394,900</text>
<text x="2525" y="870" class="resource">O 134,472,400</text>
<text x="2840" y="791" class="body">Alpha Research 21→22 · 7d 12h</text>
<text x="2840" y="814" class="body">Defense Line 18→22 · 23d 22h</text>
</g>
<g id="level-24"><rect x="2207" y="916" width="1016" height="146" rx="12" fill="#0f1c2f"/>
<rect x="2207" y="916" width="5" height="146" rx="2" fill="#ff6b6b" opacity=".8"/>
<text x="2230" y="958" class="level">24</text>
<text x="2300" y="945" class="time">15d 15h 36m 1s</text>
<rect x="2300" y="956" width="220" height="5" rx="2" fill="#263a57"/>
<rect x="2300" y="956" width="194.8" height="5" rx="2" fill="#ff6b6b"/>
<text x="2525" y="945" class="body">Base + requirements</text>
<text x="2525" y="978" class="resource">F 367,579,230</text>
<text x="2525" y="1002" class="resource">M 525,845,430</text>
<text x="2525" y="1026" class="resource">O 166,699,840</text>
<text x="2840" y="947" class="body">Alpha Research 22→23 · 9d 18h</text>
<text x="2840" y="970" class="body">Alliance Center 15→23 · 20d 10h</text>
</g>
<g id="level-25"><rect x="2207" y="1072" width="1016" height="146" rx="12" fill="#111f34"/>
<rect x="2207" y="1072" width="5" height="146" rx="2" fill="#ff6b6b" opacity=".8"/>
<text x="2230" y="1114" class="level">25</text>
<text x="2300" y="1101" class="time">21d 21h 50m 25s</text>
<rect x="2300" y="1112" width="220" height="5" rx="2" fill="#263a57"/>
<rect x="2300" y="1112" width="199.1" height="5" rx="2" fill="#ff6b6b"/>
<text x="2525" y="1101" class="body">Base + requirements</text>
<text x="2525" y="1134" class="resource">F 808,585,000</text>
<text x="2525" y="1158" class="resource">M 560,272,300</text>
<text x="2525" y="1182" class="resource">O 218,224,000</text>
<text x="2840" y="1103" class="body">Alpha Research 23→24 · 13d 16h</text>
<text x="2840" y="1126" class="body">Warrior Center 20→24 · 31d 12h</text>
</g>
<g id="level-26"><rect x="2207" y="1228" width="1016" height="146" rx="12" fill="#0f1c2f"/>
<rect x="2207" y="1228" width="5" height="146" rx="2" fill="#ff6b6b" opacity=".8"/>
<text x="2230" y="1270" class="level">26</text>
<text x="2300" y="1257" class="time">30d 16h 10m 35s</text>
<rect x="2300" y="1268" width="220" height="5" rx="2" fill="#263a57"/>
<rect x="2300" y="1268" width="203.5" height="5" rx="2" fill="#ff6b6b"/>
<text x="2525" y="1257" class="body">Base + requirements</text>
<text x="2525" y="1290" class="resource">F 870,748,660</text>
<text x="2525" y="1314" class="resource">M 1,327,282,600</text>
<text x="2525" y="1338" class="resource">O 390,472,550</text>
<text x="2840" y="1259" class="body">Alpha Research 24→25 · 19d 4h</text>
<text x="2840" y="1282" class="body">Hospital 17→25 · 56d 10h</text>
</g>
<g id="level-27"><rect x="2207" y="1384" width="1016" height="146" rx="12" fill="#111f34"/>
<rect x="2207" y="1384" width="5" height="146" rx="2" fill="#ff6b6b" opacity=".8"/>
<text x="2230" y="1426" class="level">27</text>
<text x="2300" y="1413" class="time">42d 22h 38m 49s</text>
<rect x="2300" y="1424" width="220" height="5" rx="2" fill="#263a57"/>
<rect x="2300" y="1424" width="207.8" height="5" rx="2" fill="#ff6b6b"/>
<text x="2525" y="1413" class="body">Base + requirements</text>
<text x="2525" y="1446" class="resource">F 1,869,669,000</text>
<text x="2525" y="1470" class="resource">M 1,201,793,300</text>
<text x="2525" y="1494" class="resource">O 490,357,300</text>
<text x="2840" y="1415" class="body">Alpha Research 25→26 · 26d 20h</text>
<text x="2840" y="1438" class="body">Defense Line 22→26 · 79d 9h</text>
</g>
<g id="level-28"><rect x="2207" y="1540" width="1016" height="146" rx="12" fill="#0f1c2f"/>
<rect x="2207" y="1540" width="5" height="146" rx="2" fill="#ff6b6b" opacity=".8"/>
<text x="2230" y="1582" class="level">28</text>
<text x="2300" y="1569" class="time">60d 2h 54m 20s</text>
<rect x="2300" y="1580" width="220" height="5" rx="2" fill="#263a57"/>
<rect x="2300" y="1580" width="212.2" height="5" rx="2" fill="#ff6b6b"/>
<text x="2525" y="1569" class="body">Base + requirements</text>
<text x="2525" y="1602" class="resource">F 2,065,874,100</text>
<text x="2525" y="1626" class="resource">M 2,065,874,100</text>
<text x="2525" y="1650" class="resource">O 746,313,600</text>
<text x="2840" y="1571" class="body">Alpha Research 26→27 · 37d 13h</text>
<text x="2840" y="1594" class="body">Soldier Camp 19→27 · 106d 23h</text>
</g>
<g id="level-29"><rect x="2207" y="1696" width="1016" height="146" rx="12" fill="#111f34"/>
<rect x="2207" y="1696" width="5" height="146" rx="2" fill="#ff6b6b" opacity=".8"/>
<text x="2230" y="1738" class="level">29</text>
<text x="2300" y="1725" class="time">78d 3h 46m 37s</text>
<rect x="2300" y="1736" width="220" height="5" rx="2" fill="#263a57"/>
<rect x="2300" y="1736" width="215.6" height="5" rx="2" fill="#ff6b6b"/>
<text x="2525" y="1725" class="body">Base + requirements</text>
<text x="2525" y="1758" class="resource">F 3,089,141,000</text>
<text x="2525" y="1782" class="resource">M 2,114,266,400</text>
<text x="2525" y="1806" class="resource">O 851,964,900</text>
<text x="2840" y="1727" class="body">Alpha Research 27→28 · 52d 14h</text>
<text x="2840" y="1750" class="body">Warrior Center 24→28 · 116d 17h</text>
</g>
<g id="level-30"><rect x="2207" y="1852" width="1016" height="146" rx="12" fill="#0f1c2f"/>
<rect x="2207" y="1852" width="5" height="146" rx="2" fill="#ff6b6b" opacity=".8"/>
<text x="2230" y="1894" class="level">30</text>
<text x="2300" y="1881" class="time">101d 14h 30m 37s</text>
<rect x="2300" y="1892" width="220" height="5" rx="2" fill="#263a57"/>
<rect x="2300" y="1892" width="219.0" height="5" rx="2" fill="#ff6b6b"/>
<text x="2525" y="1881" class="body">Base + requirements</text>
<text x="2525" y="1914" class="resource">F 2,855,568,500</text>
<text x="2525" y="1938" class="resource">M 3,982,955,500</text>
<text x="2525" y="1962" class="resource">O 1,203,079,400</text>
<text x="2840" y="1883" class="body">Alpha Research 28→29 · 68d 9h</text>
<text x="2840" y="1906" class="body">Drill Ground 21→29 · 134d 14h</text>
</g>
<text x="2220" y="2038" class="total-label">BAND TOTAL · BASE TIME + ALL RESOURCES</text>
<text x="2220" y="2072" class="total">377d 10h 51m 56s</text>
<text x="2575" y="2043" class="total">F 12.907B  ·  M 12.58B</text>
<text x="2575" y="2076" class="total">O 4.357B</text>
<text x="45" y="2220" class="card-label">HOW TO READ</text>
<text x="45" y="2254" class="footer">Each row is incremental from the prior Base level. Total Resources includes that Base upgrade and every recursively required building upgrade; sum rows for any cumulative target.</text>
<text x="45" y="2285" class="footer">Building Work shows each prerequisite building’s level range and its own sequential time. Different buildings may run in parallel when additional construction slots are available.</text>
<text x="45" y="2316" class="footer">Base Time excludes prerequisite time. Actual elapsed time depends on slot count, scheduling, speed bonuses, alliance help, events, and server overrides. F Food · M Metal · O Oil.</text>
<text x="45" y="2347" class="footer">Source: com.zroute.global v1.30.07 · catalog V202608062022</text>
<text x="3255" y="2347" class="footer" text-anchor="end">zroute-building-data</text>
</svg>